<svg width="60" height="60" viewBox="0 0 60 60" fill="none" xmlns="http://www.w3.org/2000/svg">
<g clip-path="url(#clip0_336_20)">
<mask id="mask0_336_20" style="mask-type:luminance" maskUnits="userSpaceOnUse" x="0" y="0" width="60" height="60">
<path d="M0 0H60V60H0V0Z" fill="white"/>
</mask>
<g mask="url(#mask0_336_20)">
<path fill-rule="evenodd" clip-rule="evenodd" d="M60 0H0V60H60V0ZM16.25 7.5C15.9185 7.5 15.6005 7.6317 15.3661 7.86612C15.1317 8.10054 15 8.41848 15 8.75V10H8.75C8.41848 10 8.10054 10.1317 7.86612 10.3661C7.6317 10.6005 7.5 10.9185 7.5 11.25V18.75C7.5 20.4076 8.15848 21.9973 9.33058 23.1694C10.5027 24.3415 12.0924 25 13.75 25H15.8537C16.7472 27.5214 18.2978 29.7584 20.3452 31.48C22.3927 33.2015 24.8627 34.3451 27.5 34.7925V42.5H20C19.6685 42.5 19.3505 42.6317 19.1161 42.8661C18.8817 43.1005 18.75 43.4185 18.75 43.75V51.25C18.75 51.5815 18.8817 51.8995 19.1161 52.1339C19.3505 52.3683 19.6685 52.5 20 52.5H40C40.3315 52.5 40.6495 52.3683 40.8839 52.1339C41.1183 51.8995 41.25 51.5815 41.25 51.25V43.75C41.25 43.4185 41.1183 43.1005 40.8839 42.8661C40.6495 42.6317 40.3315 42.5 40 42.5H32.5V34.7925C35.1373 34.3451 37.6073 33.2015 39.6548 31.48C41.7022 29.7584 43.2528 27.5214 44.1463 25H46.25C47.9076 25 49.4973 24.3415 50.6694 23.1694C51.8415 21.9973 52.5 20.4076 52.5 18.75V11.25C52.5 10.9185 52.3683 10.6005 52.1339 10.3661C51.8995 10.1317 51.5815 10 51.25 10H45V8.75C45 8.41848 44.8683 8.10054 44.6339 7.86612C44.3995 7.6317 44.0815 7.5 43.75 7.5H16.25ZM45 12.5V22.5H46.25C47.2446 22.5 48.1984 22.1049 48.9016 21.4017C49.6049 20.6984 50 19.7446 50 18.75V12.5H45ZM10 12.5H15V22.5H13.75C12.7554 22.5 11.8016 22.1049 11.0983 21.4017C10.3951 20.6984 10 19.7446 10 18.75V12.5Z" fill="#F8EEEE"/>
</g>
</g>
<defs>
<clipPath id="clip0_336_20">
<rect width="60" height="60" fill="white"/>
</clipPath>
</defs>
</svg>
