<svg width="60" height="60" viewBox="0 0 60 60" fill="none" xmlns="http://www.w3.org/2000/svg">
<path d="M15 4.8C15 3.141 13.656 3 12 3C10.341 3 9 3.141 9 4.8V30H15V4.8ZM9 55.2C9 56.853 10.341 57 12 57C13.656 57 15 56.853 15 55.2V45H9V55.2ZM19.197 33H4.797C3.138 33 3 34.344 3 36V39C3 40.659 3.138 42 4.797 42H19.2C20.85 42 21 40.659 21 39V36C21 34.344 20.85 33 19.197 33ZM55.197 36H40.794C39.138 36 39 37.344 39 39V42C39 43.659 39.138 45 40.797 45H55.2C56.85 45 57 43.659 57 42V39C57 37.344 56.85 36 55.197 36ZM39 21C39 19.344 38.85 18 37.197 18H22.797C21.138 18 21 19.344 21 21V24C21 25.659 21.138 27 22.797 27H37.2C38.85 27 39 25.659 39 24V21ZM33 4.8C33 3.141 31.656 3 30 3C28.341 3 27 3.141 27 4.8V15H33V4.8ZM27 55.2C27 56.853 28.341 57 30 57C31.656 57 33 56.853 33 55.2V30H27V55.2ZM51 4.8C51 3.141 49.656 3 48 3C46.341 3 45 3.141 45 4.8V33H51V4.8ZM45 55.2C45 56.853 46.341 57 48 57C49.656 57 51 56.853 51 55.2V48H45V55.2Z" fill="#F8EEEE"/>
</svg>
