<svg width="50" height="41" viewBox="0 0 50 41" fill="none" xmlns="http://www.w3.org/2000/svg">
<path d="M5 40.3555C3.625 40.3555 2.44833 39.8663 1.47 38.888C0.491667 37.9096 0.00166667 36.7321 0 35.3555V5.35547C0 3.98047 0.49 2.8038 1.47 1.82547C2.45 0.847135 3.62667 0.357135 5 0.355469H45C46.375 0.355469 47.5525 0.845468 48.5325 1.82547C49.5125 2.80547 50.0017 3.98214 50 5.35547V35.3555C50 36.7305 49.5108 37.908 48.5325 38.888C47.5542 39.868 46.3767 40.3571 45 40.3555H5ZM25 22.8555L5 10.3555V35.3555H45V10.3555L25 22.8555ZM25 17.8555L45 5.35547H5L25 17.8555ZM5 10.3555V5.35547V35.3555V10.3555Z" fill="#F8EEEE"/>
</svg>
