<svg width="60" height="60" viewBox="0 0 60 60" fill="none" xmlns="http://www.w3.org/2000/svg">
<g clip-path="url(#clip0_336_14)">
<path fill-rule="evenodd" clip-rule="evenodd" d="M42.4998 10C44.4073 10 45.9848 11.085 47.1398 12.225C48.3423 13.4075 49.4448 14.9975 50.4248 16.75C52.3923 20.265 54.1048 24.8575 55.2373 29.395C56.3623 33.8975 56.9848 38.6 56.5873 42.2975C56.1873 46.01 54.2748 50 49.9998 50C46.3098 50 43.3698 48.1 40.9648 46.1725L40.0873 45.45L38.8573 44.4125L37.7473 43.4925C35.1998 41.43 32.9373 40 29.9998 40C27.0623 40 24.7998 41.43 22.2523 43.4925L21.1423 44.4125L19.9123 45.45L19.0373 46.1725C16.6273 48.1 13.6873 50 9.99982 50C5.72232 50 3.80982 46.01 3.41232 42.2975C3.01732 38.5975 3.63732 33.8975 4.76232 29.395C5.89482 24.8575 7.60732 20.265 9.57482 16.7475C10.5548 14.9975 11.6573 13.4075 12.8598 12.2225C14.0148 11.085 15.5923 10 17.4998 10C18.7873 10 20.0448 10.3075 21.2823 10.675L22.7623 11.1275C23.0098 11.2025 23.2548 11.2775 23.4998 11.345C25.6623 11.965 27.8748 12.5 29.9998 12.5C32.1248 12.5 34.3373 11.965 36.4998 11.345L38.7123 10.6775C39.9573 10.31 41.2248 10 42.4998 10ZM42.4998 15C41.5423 15 40.5423 15.29 39.5723 15.6075L38.4273 15.985C38.2441 16.0446 38.0599 16.1013 37.8748 16.155C35.6623 16.785 32.8748 17.5 29.9998 17.5C27.1248 17.5 24.3373 16.785 22.1248 16.155L21.5748 15.985L20.4273 15.6075C19.4573 15.2875 18.4573 15 17.4998 15C16.4548 15.195 15.5173 16.4625 14.8098 17.6375L14.4148 18.325L13.9398 19.19C12.2348 22.235 10.6648 26.39 9.61482 30.6075C8.62732 34.5475 8.14732 38.3225 8.32982 41.1325L8.39482 41.865L8.44482 42.305L8.51982 42.825C8.69232 43.8275 9.06482 45 9.99982 45C12.0298 45 13.7248 43.99 15.8323 42.315L16.8398 41.495L18.7398 39.905L19.5998 39.205C22.2598 37.0975 25.5873 35 29.9998 35C34.4123 35 37.7398 37.1 40.3998 39.205L41.2623 39.905L43.1623 41.495L44.1673 42.315C46.2748 43.99 47.9673 45 49.9998 45C50.8498 45 51.2348 44.0325 51.4273 43.1025L51.5223 42.5575L51.6148 41.765C51.9223 38.9 51.4473 34.8525 50.3873 30.6075C49.4223 26.7425 48.0223 22.9275 46.4823 19.9725L45.5848 18.3225L45.1898 17.64C44.4823 16.4625 43.5448 15.195 42.4998 15ZM21.2498 20C22.9074 20 24.4971 20.6585 25.6692 21.8306C26.8413 23.0027 27.4998 24.5924 27.4998 26.25C27.4998 27.9076 26.8413 29.4973 25.6692 30.6694C24.4971 31.8415 22.9074 32.5 21.2498 32.5C19.5922 32.5 18.0025 31.8415 16.8304 30.6694C15.6583 29.4973 14.9998 27.9076 14.9998 26.25C14.9998 24.5924 15.6583 23.0027 16.8304 21.8306C18.0025 20.6585 19.5922 20 21.2498 20ZM38.7498 20C39.3622 20.0001 39.9532 20.2249 40.4108 20.6318C40.8683 21.0387 41.1607 21.5994 41.2323 22.2075L41.2498 22.5V23.75H42.4998C43.137 23.7507 43.7499 23.9947 44.2132 24.4321C44.6766 24.8695 44.9554 25.4674 44.9928 26.1035C45.0301 26.7396 44.8231 27.3659 44.4142 27.8546C44.0052 28.3432 43.4251 28.6572 42.7923 28.7325L42.4998 28.75H41.2498V30C41.2491 30.6372 41.0051 31.2501 40.5677 31.7134C40.1303 32.1768 39.5324 32.4556 38.8963 32.4929C38.2602 32.5303 37.6339 32.3233 37.1452 31.9143C36.6566 31.5054 36.3426 30.9252 36.2673 30.2925L36.2498 30V28.75H34.9998C34.3626 28.7493 33.7497 28.5053 33.2864 28.0679C32.8231 27.6305 32.5442 27.0326 32.5069 26.3965C32.4695 25.7604 32.6765 25.1341 33.0855 24.6454C33.4945 24.1568 34.0746 23.8428 34.7073 23.7675L34.9998 23.75H36.2498V22.5C36.2498 21.837 36.5132 21.2011 36.9821 20.7322C37.4509 20.2634 38.0868 20 38.7498 20ZM21.2498 25C20.9183 25 20.6004 25.1317 20.3659 25.3661C20.1315 25.6005 19.9998 25.9185 19.9998 26.25C19.9998 26.5815 20.1315 26.8995 20.3659 27.1339C20.6004 27.3683 20.9183 27.5 21.2498 27.5C21.5813 27.5 21.8993 27.3683 22.1337 27.1339C22.3681 26.8995 22.4998 26.5815 22.4998 26.25C22.4998 25.9185 22.3681 25.6005 22.1337 25.3661C21.8993 25.1317 21.5813 25 21.2498 25Z" fill="#F8EEEE"/>
</g>
<defs>
<clipPath id="clip0_336_14">
<rect width="60" height="60" fill="white"/>
</clipPath>
</defs>
</svg>
