<svg width="51" height="46" viewBox="0 0 51 46" fill="none" xmlns="http://www.w3.org/2000/svg">
<path d="M44.9444 0.855469C46.4179 0.855469 47.8309 1.38225 48.8728 2.31993C49.9147 3.25762 50.5 4.52939 50.5 5.85547V40.8555C50.5 42.1816 49.9147 43.4533 48.8728 44.391C47.8309 45.3287 46.4179 45.8555 44.9444 45.8555H6.05556C4.58213 45.8555 3.16905 45.3287 2.12718 44.391C1.08532 43.4533 0.5 42.1816 0.5 40.8555V5.85547C0.5 4.52939 1.08532 3.25762 2.12718 2.31993C3.16905 1.38225 4.58213 0.855469 6.05556 0.855469H44.9444ZM43.5556 39.6055V26.3555C43.5556 24.194 42.6015 22.121 40.9032 20.5925C39.205 19.0641 36.9017 18.2055 34.5 18.2055C32.1389 18.2055 29.3889 19.5055 28.0556 21.4555V18.6805H20.3056V39.6055H28.0556V27.2805C28.0556 25.3555 29.7778 23.7805 31.9167 23.7805C32.9481 23.7805 33.9372 24.1492 34.6665 24.8056C35.3958 25.462 35.8056 26.3522 35.8056 27.2805V39.6055H43.5556ZM11.2778 14.7555C12.5155 14.7555 13.7024 14.313 14.5776 13.5253C15.4528 12.7377 15.9444 11.6694 15.9444 10.5555C15.9444 8.23047 13.8611 6.33047 11.2778 6.33047C10.0327 6.33047 8.83868 6.7756 7.9583 7.56794C7.07792 8.36028 6.58333 9.43493 6.58333 10.5555C6.58333 12.8805 8.69444 14.7555 11.2778 14.7555ZM15.1389 39.6055V18.6805H7.44444V39.6055H15.1389Z" fill="#F8EEEE"/>
</svg>
