<svg width="60" height="60" viewBox="0 0 60 60" fill="none" xmlns="http://www.w3.org/2000/svg">
<path d="M30 9.25879C15.5025 9.25879 3.75 18.0713 3.75 28.9463C3.75 32.6588 5.1375 36.1332 7.53 39.0975L3.75 47.385L14.2744 44.685C18.6619 47.1525 24.0937 48.6338 30 48.6338C44.4975 48.6338 56.25 39.8213 56.25 28.9463C56.25 18.0713 44.4975 9.25879 30 9.25879ZM31.8413 40.0782H28.1475V36.5344H31.8413V40.0782ZM31.8413 32.7544V33.9244H28.1475V32.4807C28.1475 28.1307 33.1012 27.4407 33.1012 24.3507C33.1012 22.9407 31.8412 21.8569 30.1894 21.8569C28.4831 21.8569 26.9794 23.1188 26.9794 23.1188L24.8794 20.5088C24.8794 20.5088 26.9494 18.3469 30.5231 18.3469C33.9169 18.3469 37.0669 20.4469 37.0669 23.9907C37.0669 28.9444 31.8413 29.5144 31.8413 32.7544Z" fill="#F8EEEE"/>
</svg>
